<svg width="36" height="36" viewBox="0 0 36 36" fill="none" xmlns="http://www.w3.org/2000/svg">
<g clip-path="url(#clip0_6_90)">
<path d="M7.875 0C8.17337 0 8.45952 0.118526 8.6705 0.329505C8.88147 0.540483 9 0.826631 9 1.125V2.25H27V1.125C27 0.826631 27.1185 0.540483 27.3295 0.329505C27.5405 0.118526 27.8266 0 28.125 0C28.4234 0 28.7095 0.118526 28.9205 0.329505C29.1315 0.540483 29.25 0.826631 29.25 1.125V2.25H31.5C32.6935 2.25 33.8381 2.72411 34.682 3.56802C35.5259 4.41193 36 5.55653 36 6.75V31.5C36 32.6935 35.5259 33.8381 34.682 34.682C33.8381 35.5259 32.6935 36 31.5 36H4.5C3.30653 36 2.16193 35.5259 1.31802 34.682C0.474106 33.8381 0 32.6935 0 31.5V6.75C0 5.55653 0.474106 4.41193 1.31802 3.56802C2.16193 2.72411 3.30653 2.25 4.5 2.25H6.75V1.125C6.75 0.826631 6.86853 0.540483 7.0795 0.329505C7.29048 0.118526 7.57663 0 7.875 0V0ZM4.5 4.5C3.90326 4.5 3.33097 4.73705 2.90901 5.15901C2.48705 5.58097 2.25 6.15326 2.25 6.75V31.5C2.25 32.0967 2.48705 32.669 2.90901 33.091C3.33097 33.5129 3.90326 33.75 4.5 33.75H31.5C32.0967 33.75 32.669 33.5129 33.091 33.091C33.5129 32.669 33.75 32.0967 33.75 31.5V6.75C33.75 6.15326 33.5129 5.58097 33.091 5.15901C32.669 4.73705 32.0967 4.5 31.5 4.5H4.5Z" fill="#ADEDEA"/>
<path d="M5.625 9C5.625 8.70163 5.74353 8.41548 5.95451 8.20451C6.16548 7.99353 6.45163 7.875 6.75 7.875H29.25C29.5484 7.875 29.8345 7.99353 30.0455 8.20451C30.2565 8.41548 30.375 8.70163 30.375 9V11.25C30.375 11.5484 30.2565 11.8345 30.0455 12.0455C29.8345 12.2565 29.5484 12.375 29.25 12.375H6.75C6.45163 12.375 6.16548 12.2565 5.95451 12.0455C5.74353 11.8345 5.625 11.5484 5.625 11.25V9ZM24.75 16.875C24.75 16.5766 24.8685 16.2905 25.0795 16.0795C25.2905 15.8685 25.5766 15.75 25.875 15.75H28.125C28.4234 15.75 28.7095 15.8685 28.9205 16.0795C29.1315 16.2905 29.25 16.5766 29.25 16.875V19.125C29.25 19.4234 29.1315 19.7095 28.9205 19.9205C28.7095 20.1315 28.4234 20.25 28.125 20.25H25.875C25.5766 20.25 25.2905 20.1315 25.0795 19.9205C24.8685 19.7095 24.75 19.4234 24.75 19.125V16.875ZM18 16.875C18 16.5766 18.1185 16.2905 18.3295 16.0795C18.5405 15.8685 18.8266 15.75 19.125 15.75H21.375C21.6734 15.75 21.9595 15.8685 22.1705 16.0795C22.3815 16.2905 22.5 16.5766 22.5 16.875V19.125C22.5 19.4234 22.3815 19.7095 22.1705 19.9205C21.9595 20.1315 21.6734 20.25 21.375 20.25H19.125C18.8266 20.25 18.5405 20.1315 18.3295 19.9205C18.1185 19.7095 18 19.4234 18 19.125V16.875ZM6.75 23.625C6.75 23.3266 6.86853 23.0405 7.07951 22.8295C7.29048 22.6185 7.57663 22.5 7.875 22.5H10.125C10.4234 22.5 10.7095 22.6185 10.9205 22.8295C11.1315 23.0405 11.25 23.3266 11.25 23.625V25.875C11.25 26.1734 11.1315 26.4595 10.9205 26.6705C10.7095 26.8815 10.4234 27 10.125 27H7.875C7.57663 27 7.29048 26.8815 7.07951 26.6705C6.86853 26.4595 6.75 26.1734 6.75 25.875V23.625ZM13.5 23.625C13.5 23.3266 13.6185 23.0405 13.8295 22.8295C14.0405 22.6185 14.3266 22.5 14.625 22.5H16.875C17.1734 22.5 17.4595 22.6185 17.6705 22.8295C17.8815 23.0405 18 23.3266 18 23.625V25.875C18 26.1734 17.8815 26.4595 17.6705 26.6705C17.4595 26.8815 17.1734 27 16.875 27H14.625C14.3266 27 14.0405 26.8815 13.8295 26.6705C13.6185 26.4595 13.5 26.1734 13.5 25.875V23.625Z" fill="#ADEDEA"/>
</g>
<defs>
<clipPath id="clip0_6_90">
<rect width="36" height="36" fill="white"/>
</clipPath>
</defs>
</svg>
