<svg width="36" height="36" viewBox="0 0 36 36" fill="none" xmlns="http://www.w3.org/2000/svg">
<g clip-path="url(#clip0_6_98)">
<path d="M19.1588 2.29275C18.7732 2.26428 18.3866 2.25002 18 2.25V0C18.4422 0.000215612 18.8843 0.0167268 19.3252 0.0495L19.1588 2.29275ZM23.6677 3.30525C22.9465 3.02694 22.2058 2.80208 21.4515 2.6325L21.9443 0.4365C22.806 0.63 23.6542 0.8865 24.4777 1.206L23.6677 3.30525ZM26.7502 4.90275C26.4286 4.68821 26.0991 4.48557 25.7625 4.29525L26.8717 2.33775C27.641 2.77365 28.3773 3.26548 29.0745 3.80925L27.6907 5.5845C27.3857 5.34652 27.072 5.11986 26.7502 4.905V4.90275ZM30.8767 8.93025C30.4317 8.29795 29.9406 7.69932 29.4075 7.13925L31.0365 5.58675C31.644 6.228 32.2065 6.91425 32.7172 7.63425L30.8767 8.93025ZM32.5507 11.9722C32.4031 11.6155 32.2425 11.2643 32.0692 10.9193L34.0785 9.90675C34.4758 10.6967 34.8143 11.5149 35.091 12.3548L32.9535 13.059C32.8326 12.6919 32.6982 12.3295 32.5507 11.9722ZM33.7432 17.613C33.725 16.8398 33.6498 16.0689 33.5182 15.3068L35.7345 14.9242C35.8852 15.7927 35.973 16.6747 35.9955 17.5567L33.7455 17.613H33.7432ZM33.4485 21.0735C33.5227 20.691 33.5835 20.3107 33.6307 19.926L35.865 20.2028C35.7569 21.0806 35.584 21.9492 35.3475 22.8015L33.1785 22.2007C33.282 21.8295 33.372 21.4538 33.4485 21.0735ZM31.3065 26.4263C31.7205 25.7738 32.085 25.0898 32.4 24.3832L34.4565 25.2945C34.0965 26.1045 33.6802 26.883 33.2077 27.63L31.3065 26.4263ZM29.1375 29.1375C29.412 28.863 29.6752 28.5795 29.925 28.287L31.6305 29.7563C31.3417 30.0911 31.0407 30.4153 30.7282 30.7282L29.1375 29.1375Z" fill="#ADEDEA"/>
<path d="M18 2.25C15.4099 2.25019 12.8599 2.88911 10.5758 4.11016C8.29167 5.33122 6.34393 7.09673 4.90508 9.25031C3.46623 11.4039 2.58069 13.8791 2.32689 16.4566C2.07309 19.0342 2.45886 21.6346 3.45005 24.0274C4.44123 26.4203 6.00723 28.5318 8.00933 30.1749C10.0114 31.818 12.3879 32.942 14.9281 33.4473C17.4683 33.9526 20.094 33.8237 22.5725 33.072C25.0511 32.3202 27.3059 30.9688 29.1374 29.1375L30.7282 30.7282C28.6351 32.8225 26.0578 34.3681 23.2245 35.2282C20.3913 36.0883 17.3897 36.2363 14.4856 35.6591C11.5815 35.0819 8.86463 33.7972 6.57568 31.919C4.28674 30.0408 2.4964 27.627 1.3633 24.8915C0.230199 22.156 -0.210682 19.1832 0.0797202 16.2366C0.370123 13.29 1.38284 10.4605 3.02815 7.99879C4.67346 5.53711 6.90055 3.51925 9.51211 2.12401C12.1237 0.728764 15.0391 -0.000784647 18 6.33281e-07V2.25Z" fill="#ADEDEA"/>
<path d="M16.875 6.75C17.1734 6.75 17.4595 6.86853 17.6705 7.07951C17.8815 7.29048 18 7.57663 18 7.875V19.5975L25.308 23.7735C25.5595 23.9252 25.7417 24.1693 25.8157 24.4536C25.8896 24.7379 25.8494 25.0399 25.7037 25.2949C25.5579 25.55 25.3182 25.7379 25.0357 25.8186C24.7532 25.8992 24.4504 25.8662 24.192 25.7265L16.317 21.2265C16.1448 21.1281 16.0017 20.986 15.9021 20.8145C15.8025 20.6431 15.7501 20.4483 15.75 20.25V7.875C15.75 7.57663 15.8685 7.29048 16.0795 7.07951C16.2905 6.86853 16.5766 6.75 16.875 6.75Z" fill="#ADEDEA"/>
</g>
<defs>
<clipPath id="clip0_6_98">
<rect width="36" height="36" fill="white"/>
</clipPath>
</defs>
</svg>
