<svg width="39" height="39" viewBox="0 0 39 39" fill="none" xmlns="http://www.w3.org/2000/svg">
<path d="M19.1349 38.6464C8.61329 38.6464 0.0528564 30.086 0.0528564 19.5644C0.0528564 9.04286 8.61329 0.482422 19.1349 0.482422C29.6564 0.482422 38.2168 9.04286 38.2168 19.5644C38.2168 30.086 29.6564 38.6464 19.1349 38.6464ZM19.1349 2.43241C9.68857 2.43241 2.00284 10.1181 2.00284 19.5644C2.00284 29.0107 9.68857 36.6964 19.1349 36.6964C28.5811 36.6964 36.2669 29.0107 36.2669 19.5644C36.2669 10.1181 28.5811 2.43241 19.1349 2.43241Z" fill="white"/>
<path d="M20.6 14.2272V16.6368C20.6 16.7371 20.6808 16.8151 20.7783 16.8151H24.2716C24.3719 16.8151 24.4499 16.8959 24.4499 16.9934V20.7429C24.4499 20.8432 24.3691 20.9212 24.2716 20.9212H20.7783C20.678 20.9212 20.6 21.002 20.6 21.0995V29.7881C20.6 29.8884 20.5193 29.9664 20.4218 29.9664H16.6193C16.519 29.9664 16.441 29.8856 16.441 29.7881V21.0995C16.441 20.9992 16.3602 20.9212 16.2627 20.9212H13.6358C13.5355 20.9212 13.4575 20.8404 13.4575 20.7429V16.9934C13.4575 16.8931 13.5383 16.8151 13.6358 16.8151H16.2627C16.363 16.8151 16.441 16.7343 16.441 16.6368V12.904C16.441 11.8705 16.8644 10.9373 17.5358 10.2576C18.2155 9.57787 19.157 9.15723 20.1905 9.15723H24.6421C24.7424 9.15723 24.8204 9.23801 24.8204 9.33551V12.7229C24.8204 12.8232 24.7396 12.9012 24.6421 12.9012H21.9316C21.199 12.9012 20.6084 13.4946 20.6084 14.2244L20.6 14.2272Z" fill="white"/>
</svg>
