<svg width="40" height="39" viewBox="0 0 40 39" fill="none" xmlns="http://www.w3.org/2000/svg">
<path d="M24.7631 9.1543H15.3335C12.116 9.1543 9.50586 11.8146 9.50586 15.0934V24.0327C9.50586 27.3142 12.116 29.9718 15.3335 29.9718H24.7631C27.9806 29.9718 30.5908 27.3114 30.5908 24.0327V15.0934C30.5908 11.8118 27.9834 9.1543 24.7631 9.1543ZM28.4374 23.7402C28.4374 26.0105 26.6323 27.8491 24.4065 27.8491H15.6901C13.4643 27.8491 11.6592 26.0105 11.6592 23.7402V15.3915C11.6592 13.1211 13.4643 11.2826 15.6901 11.2826H24.4065C26.6323 11.2826 28.4374 13.1211 28.4374 15.3915V23.7402Z" fill="white"/>
<path d="M20.047 14.0845C17.0217 14.0845 14.5675 16.5359 14.5675 19.5639C14.5675 22.592 17.0189 25.0434 20.047 25.0434C23.075 25.0434 25.5264 22.592 25.5264 19.5639C25.5264 16.5359 23.075 14.0845 20.047 14.0845ZM20.047 22.9095C18.2001 22.9095 16.7013 21.4108 16.7013 19.5639C16.7013 17.717 18.2001 16.2183 20.047 16.2183C21.8939 16.2183 23.3926 17.717 23.3926 19.5639C23.3926 21.4108 21.8939 22.9095 20.047 22.9095Z" fill="white"/>
<path d="M25.5264 15.213C26.1495 15.213 26.6546 14.7078 26.6546 14.0847C26.6546 13.4617 26.1495 12.9565 25.5264 12.9565C24.9033 12.9565 24.3982 13.4617 24.3982 14.0847C24.3982 14.7078 24.9033 15.213 25.5264 15.213Z" fill="white"/>
<path d="M20.047 38.6464C9.5254 38.6464 0.964966 30.086 0.964966 19.5644C0.964966 9.04286 9.5254 0.482422 20.047 0.482422C30.5685 0.482422 39.129 9.04286 39.129 19.5644C39.129 30.086 30.5685 38.6464 20.047 38.6464ZM20.047 2.43241C10.6007 2.43241 2.91495 10.1181 2.91495 19.5644C2.91495 29.0107 10.6007 36.6964 20.047 36.6964C29.4932 36.6964 37.179 29.0107 37.179 19.5644C37.179 10.1181 29.4932 2.43241 20.047 2.43241Z" fill="white"/>
</svg>
