<svg width="40" height="39" viewBox="0 0 40 39" fill="none" xmlns="http://www.w3.org/2000/svg">
<path d="M20.0058 38.6464C9.48426 38.6464 0.923828 30.086 0.923828 19.5644C0.923828 9.04286 9.48426 0.482422 20.0058 0.482422C30.5274 0.482422 39.0878 9.04286 39.0878 19.5644C39.0878 30.086 30.5274 38.6464 20.0058 38.6464ZM20.0058 2.43241C10.5595 2.43241 2.87381 10.1181 2.87381 19.5644C2.87381 29.0107 10.5595 36.6964 20.0058 36.6964C29.4521 36.6964 37.1378 29.0107 37.1378 19.5644C37.1378 10.1181 29.4521 2.43241 20.0058 2.43241Z" fill="white"/>
<path d="M14.7799 16.2158H11.7129C11.4375 16.2158 11.2142 16.4391 11.2142 16.7145V28.679C11.2142 28.9544 11.4375 29.1776 11.7129 29.1776H14.7799C15.0553 29.1776 15.2785 28.9544 15.2785 28.679V16.7145C15.2785 16.4391 15.0553 16.2158 14.7799 16.2158Z" fill="white"/>
<path d="M29.3853 21.1742C29.3797 21.3246 29.3742 21.4722 29.3714 21.6226C29.3714 21.826 29.3797 22.0321 29.3825 22.2355C29.3825 22.4556 29.3825 22.6756 29.3825 22.8957V28.7596C29.3825 28.9936 29.1987 29.1774 28.9647 29.1774H25.7361C25.5104 29.1774 25.3182 28.9936 25.3182 28.7596V22.8316C25.3182 21.9959 25.4241 21.0934 24.9338 20.3635C24.8809 20.2827 24.8196 20.2075 24.7555 20.1351C24.3488 19.6838 23.7164 19.4303 23.1147 19.5278C22.6467 19.603 22.2317 19.8788 21.9113 20.227C21.7079 20.4471 21.538 20.7006 21.3904 20.9597C21.3096 21.0989 21.0561 21.4277 21.0561 21.5892V28.6844C21.0561 28.9602 20.836 29.1802 20.5602 29.1802H17.496C17.2202 29.1802 17.0001 28.9602 17.0001 28.6844V16.717C17.0001 16.4413 17.2202 16.2212 17.496 16.2212H20.5602C20.836 16.2212 21.0561 16.4413 21.0561 16.717V18.5974C21.1619 18.3912 21.2901 18.199 21.4182 18.0152C21.786 17.4831 22.2122 16.965 22.7888 16.6753C23.3487 16.3855 24.0006 16.3493 24.6329 16.3549C25.399 16.3688 26.179 16.4413 26.8754 16.7588C27.5913 17.0848 28.1819 17.667 28.6137 18.3327C28.9396 18.837 29.182 19.3969 29.3101 19.9791C29.3407 20.1156 29.3686 20.2493 29.3853 20.3886C29.402 20.5195 29.4048 20.6477 29.402 20.7814C29.3992 20.9151 29.3937 21.046 29.3881 21.1797L29.3853 21.1742Z" fill="white"/>
<path d="M13.2478 15.2217C14.7032 15.2217 15.8831 14.0419 15.8831 12.5864C15.8831 11.131 14.7032 9.95117 13.2478 9.95117C11.7924 9.95117 10.6125 11.131 10.6125 12.5864C10.6125 14.0419 11.7924 15.2217 13.2478 15.2217Z" fill="white"/>
</svg>
