<svg width="39" height="39" viewBox="0 0 39 39" fill="none" xmlns="http://www.w3.org/2000/svg">
<path d="M19.9179 38.6464C9.39635 38.6464 0.835938 30.086 0.835938 19.5644C0.835938 9.04286 9.39635 0.482422 19.9179 0.482422C30.4395 0.482422 38.9999 9.04286 38.9999 19.5644C38.9999 30.086 30.4395 38.6464 19.9179 38.6464ZM19.9179 2.43241C10.4716 2.43241 2.78592 10.1181 2.78592 19.5644C2.78592 29.0107 10.4716 36.6964 19.9179 36.6964C29.3642 36.6964 37.0499 29.0107 37.0499 19.5644C37.0499 10.1181 29.3642 2.43241 19.9179 2.43241Z" fill="white"/>
<path d="M19.918 30.9658C19.6979 30.9658 19.4862 30.8739 19.3386 30.7123C18.9987 30.3474 11.054 21.7424 11.054 17.0262C11.054 12.31 15.0291 8.16211 19.918 8.16211C24.8069 8.16211 28.7821 12.1373 28.7821 17.0262C28.7821 21.9151 20.8373 30.3474 20.4975 30.7123C20.347 30.8739 20.1381 30.9658 19.918 30.9658ZM19.918 9.74717C15.9038 9.74717 12.639 13.012 12.639 17.0262C12.639 20.1545 17.4499 26.2134 19.918 28.9907C22.3861 26.2134 27.197 20.1545 27.197 17.0262C27.197 13.012 23.9322 9.74717 19.918 9.74717Z" fill="white"/>
<path d="M19.9179 20.6308C17.7172 20.6308 15.926 18.8396 15.926 16.6389C15.926 14.4382 17.7172 12.647 19.9179 12.647C22.1186 12.647 23.9098 14.4382 23.9098 16.6389C23.9098 18.8396 22.1186 20.6308 19.9179 20.6308ZM19.9179 14.2348C18.5919 14.2348 17.5139 15.3129 17.5139 16.6389C17.5139 17.9649 18.5919 19.0429 19.9179 19.0429C21.2439 19.0429 22.322 17.9649 22.322 16.6389C22.322 15.3129 21.2439 14.2348 19.9179 14.2348Z" fill="white"/>
</svg>
