<svg width="36" height="36" viewBox="0 0 36 36" fill="none" xmlns="http://www.w3.org/2000/svg">
<g clip-path="url(#clip0_6_108)">
<path d="M27.3735 20.115C26.1945 22.5045 24.597 24.885 22.9635 27.0225C21.4139 29.0376 19.757 30.9679 18 32.805C16.2429 30.968 14.586 29.0377 13.0365 27.0225C11.403 24.885 9.8055 22.5045 8.6265 20.115C7.434 17.7007 6.75 15.4395 6.75 13.5C6.75 10.5163 7.93526 7.65483 10.045 5.54505C12.1548 3.43526 15.0163 2.25 18 2.25C20.9837 2.25 23.8452 3.43526 25.955 5.54505C28.0647 7.65483 29.25 10.5163 29.25 13.5C29.25 15.4395 28.5638 17.7007 27.3735 20.115ZM18 36C18 36 31.5 23.2065 31.5 13.5C31.5 9.91958 30.0777 6.4858 27.5459 3.95406C25.0142 1.42232 21.5804 0 18 0C14.4196 0 10.9858 1.42232 8.45406 3.95406C5.92232 6.4858 4.5 9.91958 4.5 13.5C4.5 23.2065 18 36 18 36Z" fill="#ADEDEA"/>
<path d="M18 18C16.8065 18 15.6619 17.5259 14.818 16.682C13.9741 15.8381 13.5 14.6935 13.5 13.5C13.5 12.3065 13.9741 11.1619 14.818 10.318C15.6619 9.47411 16.8065 9 18 9C19.1935 9 20.3381 9.47411 21.182 10.318C22.0259 11.1619 22.5 12.3065 22.5 13.5C22.5 14.6935 22.0259 15.8381 21.182 16.682C20.3381 17.5259 19.1935 18 18 18ZM18 20.25C19.7902 20.25 21.5071 19.5388 22.773 18.273C24.0388 17.0071 24.75 15.2902 24.75 13.5C24.75 11.7098 24.0388 9.9929 22.773 8.72703C21.5071 7.46116 19.7902 6.75 18 6.75C16.2098 6.75 14.4929 7.46116 13.227 8.72703C11.9612 9.9929 11.25 11.7098 11.25 13.5C11.25 15.2902 11.9612 17.0071 13.227 18.273C14.4929 19.5388 16.2098 20.25 18 20.25Z" fill="#ADEDEA"/>
</g>
<defs>
<clipPath id="clip0_6_108">
<rect width="36" height="36" fill="white"/>
</clipPath>
</defs>
</svg>
