<svg width="230" height="158" viewBox="0 0 230 158" fill="none" xmlns="http://www.w3.org/2000/svg">
<g opacity="0.1" clip-path="url(#clip0_7_159)">
<path d="M142.978 158C134.961 150.037 127.025 142.155 119 134.183C131.605 121.662 144.269 109.082 157.054 96.3827C156.651 96.1568 156.346 95.9734 156.033 95.8157C151.818 93.6842 147.922 91.088 144.458 87.8822C135.849 79.9147 130.523 70.1737 128.665 58.6167C125.159 36.7901 136.055 15.492 155.866 5.43134C161.136 2.75416 166.719 1.01486 172.607 0.371141C188.916 -1.41506 203.083 3.2572 214.872 14.6096C222.271 21.7331 226.88 30.451 228.957 40.4818C229.82 44.6468 230.167 48.8544 229.918 53.0918C229.172 65.8894 224.447 77.0329 215.327 86.1344C191.469 109.943 167.522 133.658 143.604 157.412C143.39 157.625 143.162 157.826 142.969 158.005L142.978 158Z" fill="#ADEDEA"/>
</g>
<g opacity="0.1" clip-path="url(#clip1_7_159)">
<path d="M23.7616 158C15.817 150.037 7.95314 142.155 0 134.183C12.4911 121.662 25.0418 109.082 37.7115 96.3827C37.3117 96.1568 37.0097 95.9734 36.6993 95.8157C32.5228 93.6842 28.6611 91.088 25.2289 87.8822C16.6973 79.9147 11.4193 70.1737 9.57779 58.6167C6.10308 36.7901 16.9015 15.492 36.5334 5.43134C41.7561 2.75416 47.2893 1.01486 53.1244 0.371141C69.2859 -1.41506 83.3251 3.2572 95.0081 14.6096C102.34 21.7331 106.908 30.451 108.967 40.4818C109.821 44.6468 110.166 48.8544 109.919 53.0918C109.179 65.8894 104.497 77.0329 95.4589 86.1344C71.8164 109.943 48.0846 133.658 24.3825 157.412C24.1699 157.625 23.9445 157.826 23.7531 158.005L23.7616 158Z" fill="#ADEDEA"/>
</g>
<defs>
<clipPath id="clip0_7_159">
<rect width="111" height="158" fill="white" transform="translate(119)"/>
</clipPath>
<clipPath id="clip1_7_159">
<rect width="110" height="158" fill="white"/>
</clipPath>
</defs>
</svg>
