<svg width="712" height="960" viewBox="0 0 712 960" fill="none" xmlns="http://www.w3.org/2000/svg">
<g opacity="0.5" clip-path="url(#clip0_0_1)">
<path d="M186.73 960C138.34 911.615 90.442 863.723 42.0001 815.286C118.082 739.213 194.527 662.776 271.697 585.615C269.262 584.242 267.423 583.128 265.532 582.17C240.094 569.219 216.572 553.444 195.667 533.966C143.702 485.556 111.554 426.37 100.338 356.15C79.1734 223.533 144.946 94.1271 264.522 32.9987C296.333 16.7324 330.035 6.16441 365.576 2.25323C464.014 -8.59964 549.526 19.7888 620.686 88.7654C665.346 132.047 693.167 185.017 705.705 245.964C710.912 271.27 713.01 296.835 711.508 322.581C707.001 400.339 678.479 468.046 623.432 523.347C479.427 668.008 334.879 812.1 190.512 956.425C189.217 957.72 187.844 958.938 186.678 960.026L186.73 960Z" fill="#ADEDEA"/>
</g>
<g opacity="0.2" clip-path="url(#clip1_0_1)">
<path d="M82.3185 -4.77592e-05C89.902 7.56004 97.4084 15.0433 105 22.6114C93.0767 34.498 81.0965 46.4411 69.0027 58.4976C69.3843 58.7121 69.6725 58.8862 69.9689 59.0359C73.9555 61.0595 77.6417 63.5242 80.9179 66.5677C89.0616 74.1318 94.0997 83.3796 95.8576 94.3515C99.1743 115.073 88.8668 135.293 70.1272 144.844C65.1419 147.385 59.8602 149.037 54.2903 149.648C38.8635 151.344 25.4624 146.908 14.3104 136.13C7.31149 129.367 2.95139 121.091 0.986492 111.568C0.17049 107.614 -0.158352 103.619 0.0771147 99.5966C0.783499 87.447 5.25323 76.8677 13.8801 68.227C36.448 45.6236 59.1011 23.1092 81.7258 0.558454C81.9288 0.356108 82.1439 0.165876 82.3266 -0.0041066L82.3185 -4.77592e-05Z" fill="#ADEDEA"/>
</g>
<defs>
<clipPath id="clip0_0_1">
<rect width="670" height="960" fill="white" transform="translate(42)"/>
</clipPath>
<clipPath id="clip1_0_1">
<rect width="105" height="150" fill="white" transform="translate(105 150) rotate(-180)"/>
</clipPath>
</defs>
</svg>
