<svg width="39" height="39" viewBox="0 0 39 39" fill="none" xmlns="http://www.w3.org/2000/svg">
<path d="M19.0909 38.6464C8.56935 38.6464 0.00891113 30.086 0.00891113 19.5644C0.00891113 9.04286 8.56935 0.482422 19.0909 0.482422C29.6125 0.482422 38.1729 9.04286 38.1729 19.5644C38.1729 30.086 29.6125 38.6464 19.0909 38.6464ZM19.0909 2.43241C9.64462 2.43241 1.9589 10.1181 1.9589 19.5644C1.9589 29.0107 9.64462 36.6964 19.0909 36.6964C28.5372 36.6964 36.2229 29.0107 36.2229 19.5644C36.2229 10.1181 28.5372 2.43241 19.0909 2.43241Z" fill="white"/>
<path d="M21.0297 18.1077L27.9661 10.032L26.3003 10.018L20.2832 17.0213L15.4361 9.95117H9.59167L17.0768 20.7541L9.85353 29.1641L11.5222 29.178L17.829 21.8377L22.8822 29.1335H28.5929L21.0325 18.1077H21.0297ZM12.0069 11.2159H14.7703L19.4335 18.013L17.9293 19.7624L12.0069 11.2159ZM18.6786 20.846L20.1773 19.0994L26.1916 27.866H23.5424L18.6786 20.8432V20.846Z" fill="white"/>
</svg>
