<svg width="40" height="39" viewBox="0 0 40 39" fill="none" xmlns="http://www.w3.org/2000/svg">
<path d="M19.9619 38.6464C9.44032 38.6464 0.879883 30.086 0.879883 19.5644C0.879883 9.04286 9.44032 0.482422 19.9619 0.482422C30.4834 0.482422 39.0439 9.04286 39.0439 19.5644C39.0439 30.086 30.4834 38.6464 19.9619 38.6464ZM19.9619 2.43241C10.5156 2.43241 2.82987 10.1181 2.82987 19.5644C2.82987 29.0107 10.5156 36.6964 19.9619 36.6964C29.4082 36.6964 37.0939 29.0107 37.0939 19.5644C37.0939 10.1181 29.4082 2.43241 19.9619 2.43241Z" fill="white"/>
<path d="M26.3384 13.1155C28.2577 13.1155 29.8205 14.6782 29.8205 16.5976V22.5339C29.8205 24.4532 28.2577 26.016 26.3384 26.016H13.5827C11.6633 26.016 10.1006 24.4532 10.1006 22.5339V16.5976C10.1006 14.6782 11.6633 13.1155 13.5827 13.1155H26.3384ZM26.3384 11.6084H13.5827C10.8276 11.6084 8.59351 13.8425 8.59351 16.5976V22.5339C8.59351 25.2889 10.8276 27.5231 13.5827 27.5231H26.3384C29.0934 27.5231 31.3275 25.2889 31.3275 22.5339V16.5976C31.3275 13.8425 29.0934 11.6084 26.3384 11.6084Z" fill="white"/>
<path d="M23.8256 20.01L18.1066 22.8402C17.8838 22.9628 17.1205 22.7984 17.1205 22.5449V16.7368C17.1205 16.4777 17.8893 16.3161 18.1122 16.4443L23.5889 19.4222C23.8173 19.5531 24.0596 19.8846 23.8284 20.01H23.8256Z" fill="white"/>
</svg>
