<svg width="264" height="789" viewBox="0 0 264 789" fill="none" xmlns="http://www.w3.org/2000/svg">
<g style="mix-blend-mode:screen" opacity="0.8">
<path opacity="0.02" d="M-442.294 126.327C-491.469 226.81 -495.235 293.037 -478.833 348.624C-458.197 418.216 -405.952 470.641 -372.966 553.114C-314.432 700.463 -294.639 783.648 -106.927 784.288C80.784 784.928 106.924 605.794 139.734 535.953C162.285 488.26 220.054 488.27 245.898 418.491C258.341 384.897 263.116 335.81 253.768 259.151C239.686 140.223 93.4354 50.2453 -63.2664 18.4396C-219.968 -13.3661 -386.882 12.9896 -442.294 126.327Z" fill="url(#paint0_linear_8_427)"/>
<path opacity="0.05" d="M-437.763 130.212C-486.584 229.056 -490.798 294.841 -474.807 350.377C-454.691 419.568 -403.013 471.817 -370.167 553.182C-311.873 697.587 -291.71 779.374 -107.354 779.998C77.0021 780.622 103.533 605.342 136.566 536.452C159.314 489.014 216.522 487.953 241.497 418.502C253.742 384.45 257.477 335.373 247.75 259.718C232.731 142.938 89.3362 54.6138 -64.7906 23.6038C-218.907 -7.41147 -382.86 18.8298 -437.763 130.212Z" fill="url(#paint1_linear_8_427)"/>
<path opacity="0.07" d="M-433.232 134.096C-481.7 231.308 -486.361 296.645 -470.781 352.129C-451.179 420.914 -400.168 473.028 -367.364 553.249C-309.491 694.778 -288.776 775.093 -107.77 775.702C73.2305 776.31 100.24 604.926 133.413 536.946C156.417 489.799 212.994 487.62 237.111 418.501C249.154 383.986 251.994 334.91 241.746 260.274C226.01 145.62 85.2525 58.9765 -66.2941 28.7569C-217.846 -1.45224 -378.834 24.6694 -433.232 134.096Z" fill="url(#paint2_linear_8_427)"/>
<path opacity="0.1" d="M-428.696 137.982C-476.815 233.56 -482.064 298.492 -466.754 353.882C-447.839 422.314 -397.332 474.24 -364.565 553.317C-307.118 691.971 -285.842 770.819 -108.196 771.412C69.4488 772.005 96.947 604.521 130.245 537.446C153.509 490.585 209.431 487.288 232.705 418.512C244.545 383.529 246.491 334.463 235.728 260.841C219.279 148.315 81.1535 63.3453 -67.8128 33.9214C-216.784 4.50267 -374.813 30.5151 -428.696 137.982Z" fill="url(#paint3_linear_8_427)"/>
<path opacity="0.12" d="M-424.165 141.866C-471.93 235.806 -477.663 300.307 -462.728 355.639C-444.364 423.681 -394.492 475.451 -361.766 553.385C-304.751 689.162 -282.913 766.544 -108.623 767.121C65.6721 767.699 93.654 604.109 127.083 537.945C150.611 491.37 205.863 486.944 228.31 418.522C239.941 383.066 240.997 334.016 229.714 261.408C212.558 151.013 77.0594 67.7185 -69.3319 39.0902C-215.723 10.462 -370.786 36.3548 -424.165 141.866Z" fill="url(#paint4_linear_8_427)"/>
<path opacity="0.15" d="M-419.634 145.751C-467.045 238.058 -473.257 302.116 -458.701 357.392C-440.889 425.038 -391.657 476.663 -358.967 553.452C-302.39 686.354 -279.984 762.264 -109.045 762.826C61.8953 763.387 90.3714 603.698 123.92 538.438C147.714 492.155 202.278 486.585 223.914 418.527C235.332 382.598 235.509 333.563 223.7 261.974C205.842 153.712 72.9653 72.0867 -70.8458 44.2542C-214.657 16.4216 -366.76 42.1948 -419.629 145.751H-419.634Z" fill="url(#paint5_linear_8_427)"/>
<path opacity="0.17" d="M-415.103 149.635C-462.166 240.304 -468.85 303.926 -454.68 359.144C-437.42 426.396 -388.827 477.874 -356.174 553.52C-300.038 683.551 -277.061 757.989 -109.476 758.535C58.1084 759.081 87.0839 603.293 120.752 538.938C144.811 492.94 198.679 486.226 219.508 418.538C230.713 382.135 230.016 333.121 217.682 262.541C199.131 156.411 68.8662 76.455 -72.3646 49.418C-213.596 22.3811 -362.739 48.0399 -415.103 149.635Z" fill="url(#paint6_linear_8_427)"/>
<path opacity="0.2" d="M-410.572 153.52C-457.281 242.556 -464.444 305.741 -450.654 360.902C-433.939 427.758 -385.997 479.092 -353.375 553.593C-297.692 680.753 -274.132 753.72 -109.903 754.245C54.3265 754.776 83.8013 602.887 117.584 539.437C141.914 493.731 195.063 485.863 215.107 418.548C226.088 381.662 224.528 332.679 211.663 263.108C192.426 159.116 64.767 80.8288 -73.8836 54.5824C-212.534 28.3411 -358.718 53.8803 -410.572 153.525V153.52Z" fill="url(#paint7_linear_8_427)"/>
<path opacity="0.22" d="M-406.041 157.405C-452.396 244.808 -460.033 307.545 -446.627 362.654C-430.459 429.115 -383.173 480.298 -350.576 553.66C-295.351 677.95 -271.203 749.44 -110.324 749.955C50.5496 750.469 80.5344 602.487 114.421 539.936C139.026 494.516 191.437 485.493 210.711 418.553C221.469 381.183 219.055 332.237 205.649 263.67C185.736 161.814 60.6729 85.1916 -75.4027 59.746C-211.473 34.3004 -354.696 59.7252 -406.041 157.41V157.405Z" fill="url(#paint8_linear_8_427)"/>
<path opacity="0.24" d="M-401.51 161.289C-447.335 247.153 -455.622 309.355 -442.606 364.407C-426.984 430.473 -380.353 481.51 -347.783 553.728C-293.021 675.147 -268.28 745.165 -110.756 745.659C46.7676 746.158 77.2621 602.081 111.252 540.43C136.134 495.301 187.796 485.108 206.31 418.559C216.839 380.705 213.577 331.795 199.63 264.231C179.051 164.519 56.5735 89.5549 -76.9219 64.9049C-210.412 40.255 -350.478 65.6694 -401.515 161.289H-401.51Z" fill="url(#paint9_linear_8_427)"/>
<path opacity="0.27" d="M-396.979 165.174C-442.44 249.41 -451.21 311.165 -438.58 366.16C-423.499 431.825 -377.528 482.716 -344.979 553.79C-290.69 672.344 -265.341 740.885 -111.177 741.364C42.991 741.847 74.0006 601.676 108.09 540.919C133.252 496.081 184.144 484.719 201.909 418.559C212.204 380.216 208.105 331.348 193.617 264.788C172.377 167.218 52.4796 93.9183 -78.4356 70.0588C-209.351 46.2045 -346.436 71.5097 -396.979 165.169V165.174Z" fill="url(#paint10_linear_8_427)"/>
<path opacity="0.29" d="M-392.443 169.059C-437.534 251.667 -446.794 312.975 -434.548 367.912C-420.003 433.177 -374.704 483.928 -342.175 553.858C-288.365 669.546 -262.407 736.606 -111.594 737.074C39.2195 737.536 70.7493 601.275 104.937 541.419C130.381 496.872 180.492 484.329 197.524 418.569C207.579 379.738 202.653 330.917 187.614 265.355C165.723 169.927 48.396 98.2867 -79.939 75.2281C-208.274 52.1643 -342.383 77.3654 -392.432 169.059H-392.443Z" fill="url(#paint11_linear_8_427)"/>
<path opacity="0.32" d="M-387.912 172.944C-432.639 253.924 -442.377 314.78 -430.527 369.67C-416.518 434.535 -371.895 485.145 -339.382 553.931C-286.055 666.754 -259.483 732.336 -112.025 732.783C35.4323 733.23 67.4875 600.88 101.764 541.918C127.488 497.662 176.809 483.933 193.117 418.58C202.928 379.254 197.185 330.485 181.59 265.927C159.059 172.647 44.2915 102.66 -81.4685 80.3972C-207.223 58.1291 -338.357 83.2263 -387.917 172.949L-387.912 172.944Z" fill="url(#paint12_linear_8_427)"/>
<path opacity="0.34" d="M-383.381 176.833C-427.744 256.186 -437.961 316.589 -426.5 371.427C-413.027 435.892 -369.085 486.356 -336.583 554.003C-283.751 663.961 -256.554 728.066 -112.452 728.498C31.6506 728.93 64.2415 600.49 98.6012 542.422C124.617 498.463 173.121 483.543 188.717 418.59C198.278 378.765 191.729 330.053 175.571 266.494C152.411 175.362 40.1872 107.034 -82.9873 85.5611C-206.162 64.0886 -334.325 89.0766 -383.386 176.833H-383.381Z" fill="url(#paint13_linear_8_427)"/>
<path opacity="0.37" d="M-378.85 180.718C-422.849 258.448 -433.539 318.399 -422.474 373.18C-409.531 437.244 -366.276 487.568 -333.784 554.071C-281.456 661.168 -253.625 723.786 -112.873 724.202C27.8791 724.618 60.9954 600.094 95.4383 542.916C121.74 499.248 169.422 483.137 184.321 418.595C193.627 378.276 186.282 329.621 169.563 267.055C145.784 178.071 36.0984 111.397 -84.4959 90.7197C-205.09 70.0429 -330.283 94.9216 -378.844 180.718H-378.85Z" fill="url(#paint14_linear_8_427)"/>
<path opacity="0.39" d="M-374.319 184.603C-417.959 260.705 -429.122 320.203 -418.453 374.932C-406.041 438.596 -363.477 488.78 -330.991 554.133C-279.173 658.375 -250.702 719.506 -113.305 719.907C24.092 720.307 57.7494 599.694 92.2703 543.41C118.868 500.039 165.708 482.726 179.92 418.6C188.966 377.782 180.836 329.19 163.544 267.617C139.157 180.78 31.9992 115.765 -86.0149 95.8837C-204.034 76.0026 -326.246 100.772 -374.319 184.603Z" fill="url(#paint15_linear_8_427)"/>
<path opacity="0.41" d="M-369.788 188.488C-413.064 262.963 -424.695 322.008 -414.427 376.685C-402.545 439.943 -360.679 489.992 -328.192 554.201C-276.9 655.588 -247.773 715.226 -113.732 715.616C20.3101 716.001 54.5137 599.309 89.1022 543.909C115.997 500.834 161.983 482.321 175.519 418.611C184.3 377.288 175.399 328.763 157.525 268.184C132.54 183.495 27.8999 120.133 -87.5391 101.048C-202.978 81.9624 -322.225 106.623 -369.793 188.488H-369.788Z" fill="url(#paint16_linear_8_427)"/>
<path opacity="0.44" d="M-365.257 192.372C-408.174 265.219 -420.274 323.812 -410.4 378.443C-399.044 441.3 -357.88 491.208 -325.393 554.274C-274.631 652.806 -244.844 710.957 -114.153 711.326C16.5335 711.695 51.2884 598.919 85.9446 544.408C113.136 501.635 158.253 481.91 171.123 418.621C179.629 376.794 169.974 328.337 151.512 268.75C125.943 186.21 23.8059 124.501 -89.0529 106.212C-201.912 87.9218 -318.188 112.473 -365.262 192.372H-365.257Z" fill="url(#paint17_linear_8_427)"/>
<path opacity="0.46" d="M-360.726 196.257C-403.284 267.476 -415.847 325.612 -406.379 380.195C-395.543 442.647 -355.097 492.425 -322.595 554.341C-272.369 650.023 -241.91 706.682 -114.58 707.035C12.7514 707.389 48.0579 598.539 82.7764 544.908C110.275 502.436 154.508 481.494 166.722 418.626C174.947 376.295 164.548 327.905 145.498 269.312C119.357 188.919 19.7118 128.87 -90.5668 111.37C-200.845 93.8762 -314.152 118.318 -360.726 196.257Z" fill="url(#paint18_linear_8_427)"/>
<path opacity="0.49" d="M-356.194 200.141C-398.394 269.728 -411.42 327.416 -402.352 381.948C-392.037 443.994 -352.314 493.637 -319.796 554.409C-270.121 647.246 -238.981 702.402 -115.006 702.74C8.97507 703.078 44.8329 598.149 79.6139 545.402C107.419 503.232 150.752 481.073 162.327 418.631C170.265 375.796 159.138 327.473 139.484 269.879C112.787 191.633 15.6181 133.238 -92.0803 116.54C-199.784 99.8411 -310.12 124.174 -356.189 200.147L-356.194 200.141Z" fill="url(#paint19_linear_8_427)"/>
<path opacity="0.51" d="M-351.658 204.027C-393.499 271.986 -406.982 329.221 -398.321 383.701C-388.52 445.341 -349.526 494.854 -316.992 554.472C-267.879 644.465 -236.048 698.123 -115.422 698.445C5.20329 698.768 41.6229 597.77 76.456 545.891C104.568 504.023 146.996 480.647 157.931 418.632C165.572 375.287 153.738 327.037 133.471 270.436C106.227 194.333 11.5238 137.597 -93.5996 121.694C-198.723 105.791 -306.094 130.009 -351.664 204.022L-351.658 204.027Z" fill="url(#paint20_linear_8_427)"/>
<path opacity="0.54" d="M-347.127 207.911C-388.609 274.242 -402.55 331.02 -394.294 385.458C-385.009 446.693 -346.753 496.076 -314.193 554.544C-265.658 641.703 -233.119 693.853 -115.849 694.154C1.42147 694.461 38.4082 597.39 73.2932 546.39C101.717 504.828 143.225 480.23 153.535 418.642C160.88 374.787 148.343 326.61 127.462 271.002C99.6885 197.042 7.43505 141.97 -95.108 126.858C-197.651 111.75 -302.062 135.859 -347.122 207.906L-347.127 207.911Z" fill="url(#paint21_linear_8_427)"/>
<path opacity="0.56" d="M-342.596 211.796C-383.724 276.494 -398.113 332.825 -390.273 387.211C-381.503 448.04 -343.991 497.298 -311.4 554.612C-263.447 638.936 -230.195 689.573 -116.281 689.864C-2.36571 690.155 35.1932 597.021 70.1199 546.889C98.8613 505.634 139.432 479.809 149.129 418.652C156.162 374.288 142.949 326.184 121.438 271.569C93.1494 199.752 3.33058 146.338 -96.6323 132.027C-196.595 117.715 -298.041 141.71 -342.596 211.801V211.796Z" fill="url(#paint22_linear_8_427)"/>
<path opacity="0.59" d="M-338.066 215.68C-378.839 278.745 -393.676 334.624 -386.247 388.963C-377.986 449.386 -341.234 498.52 -308.601 554.679C-261.247 636.174 -227.267 685.298 -116.702 685.573C-6.13741 685.844 31.9937 596.646 66.962 547.388C96.0259 506.445 135.645 479.387 144.733 418.662C151.454 373.788 137.58 325.752 115.424 272.136C86.631 202.45 -0.763687 150.706 -98.1463 137.19C-195.529 123.674 -294.014 147.555 -338.066 215.685V215.68Z" fill="url(#paint23_linear_8_427)"/>
<path opacity="0.61" d="M-333.535 219.565C-373.96 281.003 -389.238 336.424 -382.221 390.716C-374.47 450.734 -338.482 499.748 -305.802 554.747C-259.057 633.419 -224.338 681.023 -117.129 681.278C-9.9193 681.533 28.7945 596.278 63.794 547.883C93.1805 507.252 131.837 478.962 140.332 418.663C146.725 373.279 132.212 325.31 109.406 272.693C80.1284 205.139 -4.8629 155.07 -99.6705 142.344C-194.478 129.619 -290.004 153.39 -333.54 219.56L-333.535 219.565Z" fill="url(#paint24_linear_8_427)"/>
<path opacity="0.63" d="M-329.003 223.45C-369.075 283.255 -384.795 338.228 -378.199 392.468C-370.953 452.081 -335.74 500.98 -303.009 554.81C-256.882 630.668 -221.414 676.738 -117.56 676.983C-13.7061 677.222 25.5904 595.908 60.6211 548.377C90.3353 508.063 128.014 478.53 135.926 418.668C141.992 372.769 126.854 324.868 103.387 273.254C73.6366 207.828 -8.96178 159.433 -101.189 147.503C-193.417 135.574 -285.982 159.23 -329.008 223.44L-329.003 223.45Z" fill="url(#paint25_linear_8_427)"/>
<path opacity="0.66" d="M-324.472 227.34C-364.195 285.506 -380.348 340.033 -374.173 394.231C-367.426 453.433 -333.004 502.223 -300.205 554.887C-254.713 627.937 -218.475 672.474 -117.976 672.697C-17.4778 672.921 22.4064 595.555 57.4684 548.881C87.5103 508.89 124.206 478.114 131.541 418.683C137.263 372.275 121.527 324.426 97.3838 273.826C67.1806 210.522 -13.0456 163.812 -102.693 152.677C-192.34 141.543 -281.951 165.086 -324.467 227.34H-324.472Z" fill="url(#paint26_linear_8_427)"/>
<path opacity="0.68" d="M-319.941 231.224C-359.321 287.758 -375.9 341.832 -370.147 395.984C-363.899 454.78 -330.278 503.466 -297.406 554.955C-252.564 625.202 -215.546 668.199 -118.403 668.407C-21.2597 668.615 19.2176 595.196 54.3003 549.38C84.6804 509.711 120.377 477.693 127.134 418.694C132.513 371.771 116.189 323.979 91.3598 274.398C60.7197 213.205 -17.15 168.185 -104.217 157.847C-191.284 147.508 -277.94 170.931 -319.941 231.23V231.224Z" fill="url(#paint27_linear_8_427)"/>
<path opacity="0.71" d="M-315.405 235.109C-354.436 290.004 -371.447 343.631 -366.12 397.736C-360.372 456.126 -327.562 504.708 -294.607 555.022C-250.426 622.477 -212.618 663.919 -118.83 664.111C-25.0364 664.304 16.0287 594.837 51.1374 549.874C81.8556 510.533 116.543 477.266 122.739 418.699C127.759 371.261 110.878 323.521 85.3462 274.96C54.2795 215.873 -21.244 172.548 -105.736 163.005C-190.228 153.463 -273.929 176.766 -315.41 235.109H-315.405Z" fill="url(#paint28_linear_8_427)"/>
<path opacity="0.73" d="M-310.874 238.994C-349.562 292.257 -366.994 345.436 -362.094 399.489C-356.84 457.468 -324.852 505.962 -291.809 555.091C-248.309 619.763 -209.689 659.645 -119.251 659.822C-28.8129 659.998 12.8556 594.489 47.9748 550.374C79.0363 511.36 112.699 476.845 118.343 418.705C122.999 370.757 105.582 323.048 79.338 275.522C47.8656 218.525 -25.3327 176.917 -107.244 168.17C-189.156 159.423 -269.908 182.606 -310.874 238.999V238.994Z" fill="url(#paint29_linear_8_427)"/>
<path opacity="0.76" d="M-306.343 242.878C-344.693 294.497 -362.541 347.234 -358.067 401.241C-353.302 458.814 -322.158 507.225 -289.01 555.157C-246.202 617.058 -206.76 655.369 -119.678 655.53C-32.595 655.691 9.67705 594.139 44.8118 550.872C76.2167 512.191 108.849 476.423 113.942 418.714C118.223 370.251 100.292 322.574 73.3191 276.088C41.4564 221.177 -29.4321 181.284 -108.764 173.333C-188.095 165.381 -265.902 188.445 -306.343 242.883V242.878Z" fill="url(#paint30_linear_8_427)"/>
<path opacity="0.78" d="M-301.812 246.764C-339.824 296.745 -358.083 349.035 -354.046 402.999C-349.77 460.168 -319.484 508.5 -286.216 555.226C-244.116 614.365 -203.836 651.09 -120.109 651.236C-36.382 651.381 6.49861 593.797 41.6386 551.362C73.3972 513.019 104.979 475.998 109.536 418.715C113.432 369.743 95.0118 322.081 67.2952 276.645C35.058 223.804 -33.5364 185.643 -110.288 178.487C-187.039 171.332 -261.902 194.271 -301.817 246.758L-301.812 246.764Z" fill="url(#paint31_linear_8_427)"/>
<path opacity="0.8" d="M-297.281 250.648C-334.954 298.985 -353.619 350.833 -350.02 404.751C-346.227 461.514 -316.815 509.779 -283.418 555.293C-242.04 611.681 -200.908 646.815 -120.531 646.945C-40.1586 647.075 3.3306 593.458 38.481 551.86C70.5933 513.861 101.119 475.576 105.145 418.725C108.652 369.243 89.7629 321.581 61.2868 277.211C28.6906 226.424 -37.6252 190.016 -111.801 183.651C-185.973 177.291 -257.891 200.105 -297.286 250.642L-297.281 250.648Z" fill="url(#paint32_linear_8_427)"/>
<path opacity="0.83" d="M-292.75 254.533C-330.091 301.222 -349.156 352.638 -345.993 406.504C-342.685 462.856 -314.162 511.074 -280.614 555.361C-239.97 609.013 -197.969 642.54 -120.952 642.649C-43.9303 642.764 0.167603 593.121 35.3179 552.355C67.784 514.704 97.2485 475.16 100.744 418.73C103.845 368.739 84.5191 321.056 55.2731 277.773C22.3284 229.025 -41.7194 194.379 -113.315 188.815C-184.911 183.251 -253.886 205.935 -292.75 254.533Z" fill="url(#paint33_linear_8_427)"/>
<path opacity="0.85" d="M-288.219 258.417C-325.227 303.458 -344.688 354.438 -341.972 408.257C-339.147 464.203 -311.53 512.384 -277.82 555.428C-237.931 606.366 -195.045 638.26 -121.379 638.359C-47.7121 638.458 -2.99516 592.793 32.1552 552.854C64.9855 515.552 93.3679 474.744 96.3487 418.741C99.0381 368.24 79.3015 320.526 49.2596 278.345C15.9819 231.62 -45.8134 198.753 -114.829 193.984C-183.845 189.216 -249.885 211.77 -288.214 258.423L-288.219 258.417Z" fill="url(#paint34_linear_8_427)"/>
<path opacity="0.88" d="M-283.688 262.302C-320.368 305.695 -340.219 356.243 -337.946 410.015C-335.6 465.555 -308.908 513.721 -275.022 555.501C-235.902 603.735 -192.116 633.991 -121.805 634.074C-51.4941 634.152 -6.15813 592.471 28.987 553.359C62.1814 516.415 89.4767 474.339 91.9476 418.751C94.2157 367.741 74.0889 319.975 43.2407 278.912C9.64058 234.189 -49.9127 203.127 -116.348 199.149C-182.784 195.17 -245.89 217.594 -283.688 262.308V262.302Z" fill="url(#paint35_linear_8_427)"/>
<path opacity="0.9" d="M-279.152 266.187C-315.509 307.926 -335.74 358.042 -333.914 411.767C-332.041 466.902 -306.301 515.068 -272.218 555.564C-233.878 601.12 -189.182 629.711 -122.226 629.774C-55.2706 629.836 -9.31038 592.144 25.8296 553.848C59.3985 517.263 85.5909 473.918 87.5572 418.752C89.3936 367.236 68.9027 319.387 37.2377 279.469C3.33064 236.722 -53.9961 207.485 -117.857 204.302C-181.712 201.12 -241.884 223.409 -279.147 266.182L-279.152 266.187Z" fill="url(#paint36_linear_8_427)"/>
<path opacity="0.93" d="M-274.621 270.071C-310.656 310.151 -331.266 359.846 -329.888 413.519C-328.509 467.193 -303.721 516.441 -269.419 555.631C-231.876 598.524 -186.253 625.431 -122.648 625.483C-59.0473 625.53 -12.4629 591.831 22.6667 554.346C56.605 518.131 81.6945 473.511 83.1563 418.761C84.5505 366.742 63.7214 318.789 31.2189 280.035C-2.9899 239.249 -58.0954 211.853 -119.376 209.471C-180.656 207.089 -237.894 229.227 -274.621 270.077V270.071Z" fill="url(#paint37_linear_8_427)"/>
<path opacity="0.95" d="M-270.09 273.961C-305.88 312.309 -326.683 361.651 -325.867 415.277C-324.837 469.606 -301.162 517.85 -266.625 555.704C-229.888 595.966 -183.33 621.161 -123.08 621.193C-62.8293 621.224 -15.6205 591.519 19.4986 554.846C53.8166 519.005 77.7825 473.111 78.7554 418.772C79.6917 366.248 58.5505 318.16 25.2 280.602C-9.30525 241.745 -62.1946 216.227 -120.895 214.635C-179.595 213.044 -233.988 234.974 -270.09 273.961Z" fill="url(#paint38_linear_8_427)"/>
<path opacity="0.98" d="M-265.559 277.846C-300.996 314.556 -322.251 363.455 -321.84 417.03C-321.325 470.953 -298.623 519.286 -263.827 555.772C-227.912 593.423 -180.401 616.887 -123.506 616.902C-66.6114 616.918 -18.7732 591.218 16.3303 555.345C51.4339 519.473 73.8703 472.711 74.3541 418.783C74.8275 365.759 53.395 317.505 19.1811 281.169C-15.6156 244.215 -66.2941 220.595 -122.414 219.799C-178.534 219.004 -229.967 240.814 -265.559 277.846Z" fill="url(#paint39_linear_8_427)"/>
<path d="M69.9585 418.783C69.9585 365.26 48.2555 316.803 13.1728 281.726C-21.91 246.649 -70.3828 224.958 -123.928 224.958C-177.473 224.958 -225.94 246.655 -261.028 281.726C-296.116 316.803 -317.814 365.255 -317.814 418.783C-317.814 472.311 -296.111 520.763 -261.028 555.84C-225.94 590.916 -177.473 612.607 -123.928 612.607C-70.3828 612.607 -21.9151 590.911 13.1728 555.84C48.2607 520.768 69.9585 472.311 69.9585 418.783Z" fill="url(#paint40_linear_8_427)"/>
</g>
<defs>
<linearGradient id="paint0_linear_8_427" x1="-401.76" y1="128.834" x2="132.16" y2="588.973" gradientUnits="userSpaceOnUse">
<stop stop-color="#0101CD"/>
<stop offset="1" stop-color="#0003CE"/>
</linearGradient>
<linearGradient id="paint1_linear_8_427" x1="-398.061" y1="133.197" x2="128.724" y2="587.187" gradientUnits="userSpaceOnUse">
<stop stop-color="#0202CB"/>
<stop offset="1" stop-color="#0006CD"/>
</linearGradient>
<linearGradient id="paint2_linear_8_427" x1="-394.352" y1="137.56" x2="125.318" y2="585.416" gradientUnits="userSpaceOnUse">
<stop stop-color="#0304CA"/>
<stop offset="1" stop-color="#0008CD"/>
</linearGradient>
<linearGradient id="paint3_linear_8_427" x1="-390.643" y1="141.918" x2="121.918" y2="583.652" gradientUnits="userSpaceOnUse">
<stop stop-color="#0405C8"/>
<stop offset="1" stop-color="#000BCC"/>
</linearGradient>
<linearGradient id="paint4_linear_8_427" x1="-386.939" y1="146.281" x2="118.523" y2="581.896" gradientUnits="userSpaceOnUse">
<stop stop-color="#0606C7"/>
<stop offset="1" stop-color="#000ECC"/>
</linearGradient>
<linearGradient id="paint5_linear_8_427" x1="-383.23" y1="150.644" x2="115.133" y2="580.142" gradientUnits="userSpaceOnUse">
<stop stop-color="#0707C5"/>
<stop offset="1" stop-color="#0011CB"/>
</linearGradient>
<linearGradient id="paint6_linear_8_427" x1="-379.526" y1="155.007" x2="111.749" y2="578.397" gradientUnits="userSpaceOnUse">
<stop stop-color="#0808C4"/>
<stop offset="1" stop-color="#0013CB"/>
</linearGradient>
<linearGradient id="paint7_linear_8_427" x1="-375.822" y1="159.371" x2="108.369" y2="576.658" gradientUnits="userSpaceOnUse">
<stop stop-color="#090AC2"/>
<stop offset="1" stop-color="#0016CA"/>
</linearGradient>
<linearGradient id="paint8_linear_8_427" x1="-372.118" y1="163.733" x2="105" y2="574.924" gradientUnits="userSpaceOnUse">
<stop stop-color="#0A0BC1"/>
<stop offset="1" stop-color="#0019CA"/>
</linearGradient>
<linearGradient id="paint9_linear_8_427" x1="-368.373" y1="168.138" x2="101.636" y2="573.2" gradientUnits="userSpaceOnUse">
<stop stop-color="#0B0CBF"/>
<stop offset="1" stop-color="#001CCA"/>
</linearGradient>
<linearGradient id="paint10_linear_8_427" x1="-364.669" y1="172.502" x2="98.2829" y2="571.482" gradientUnits="userSpaceOnUse">
<stop stop-color="#0C0DBE"/>
<stop offset="1" stop-color="#001EC9"/>
</linearGradient>
<linearGradient id="paint11_linear_8_427" x1="-360.965" y1="176.87" x2="94.9399" y2="569.774" gradientUnits="userSpaceOnUse">
<stop stop-color="#0D0EBC"/>
<stop offset="1" stop-color="#0021C9"/>
</linearGradient>
<linearGradient id="paint12_linear_8_427" x1="-357.261" y1="181.238" x2="91.6019" y2="568.077" gradientUnits="userSpaceOnUse">
<stop stop-color="#0F10BB"/>
<stop offset="1" stop-color="#0024C8"/>
</linearGradient>
<linearGradient id="paint13_linear_8_427" x1="-353.562" y1="185.607" x2="88.2799" y2="566.39" gradientUnits="userSpaceOnUse">
<stop stop-color="#1011BA"/>
<stop offset="1" stop-color="#0027C8"/>
</linearGradient>
<linearGradient id="paint14_linear_8_427" x1="-349.858" y1="189.98" x2="84.9681" y2="564.718" gradientUnits="userSpaceOnUse">
<stop stop-color="#1112B8"/>
<stop offset="1" stop-color="#0029C7"/>
</linearGradient>
<linearGradient id="paint15_linear_8_427" x1="-346.16" y1="194.348" x2="81.6667" y2="563.057" gradientUnits="userSpaceOnUse">
<stop stop-color="#1213B7"/>
<stop offset="1" stop-color="#002CC7"/>
</linearGradient>
<linearGradient id="paint16_linear_8_427" x1="-342.461" y1="198.717" x2="78.3861" y2="561.411" gradientUnits="userSpaceOnUse">
<stop stop-color="#1314B5"/>
<stop offset="1" stop-color="#002FC7"/>
</linearGradient>
<linearGradient id="paint17_linear_8_427" x1="-338.768" y1="203.09" x2="75.1159" y2="559.781" gradientUnits="userSpaceOnUse">
<stop stop-color="#1416B4"/>
<stop offset="1" stop-color="#0032C6"/>
</linearGradient>
<linearGradient id="paint18_linear_8_427" x1="-335.074" y1="207.458" x2="71.8716" y2="558.172" gradientUnits="userSpaceOnUse">
<stop stop-color="#1517B2"/>
<stop offset="1" stop-color="#0034C6"/>
</linearGradient>
<linearGradient id="paint19_linear_8_427" x1="-331.381" y1="211.832" x2="68.6432" y2="556.579" gradientUnits="userSpaceOnUse">
<stop stop-color="#1618B1"/>
<stop offset="1" stop-color="#0037C5"/>
</linearGradient>
<linearGradient id="paint20_linear_8_427" x1="-327.692" y1="216.206" x2="65.4405" y2="555.012" gradientUnits="userSpaceOnUse">
<stop stop-color="#1819AF"/>
<stop offset="1" stop-color="#003AC5"/>
</linearGradient>
<linearGradient id="paint21_linear_8_427" x1="-324.004" y1="220.585" x2="62.2639" y2="553.475" gradientUnits="userSpaceOnUse">
<stop stop-color="#191AAE"/>
<stop offset="1" stop-color="#003DC4"/>
</linearGradient>
<linearGradient id="paint22_linear_8_427" x1="-320.321" y1="224.963" x2="59.1184" y2="551.965" gradientUnits="userSpaceOnUse">
<stop stop-color="#1A1BAC"/>
<stop offset="1" stop-color="#003FC4"/>
</linearGradient>
<linearGradient id="paint23_linear_8_427" x1="-316.638" y1="229.341" x2="56.0041" y2="550.49" gradientUnits="userSpaceOnUse">
<stop stop-color="#1B1DAB"/>
<stop offset="1" stop-color="#0042C3"/>
</linearGradient>
<linearGradient id="paint24_linear_8_427" x1="-312.966" y1="233.721" x2="52.9315" y2="549.059" gradientUnits="userSpaceOnUse">
<stop stop-color="#1C1EA9"/>
<stop offset="1" stop-color="#0045C3"/>
</linearGradient>
<linearGradient id="paint25_linear_8_427" x1="-309.293" y1="238.11" x2="49.9112" y2="547.673" gradientUnits="userSpaceOnUse">
<stop stop-color="#1D1FA8"/>
<stop offset="1" stop-color="#0048C3"/>
</linearGradient>
<linearGradient id="paint26_linear_8_427" x1="-305.625" y1="242.499" x2="46.9424" y2="546.34" gradientUnits="userSpaceOnUse">
<stop stop-color="#1E20A6"/>
<stop offset="1" stop-color="#004AC2"/>
</linearGradient>
<linearGradient id="paint27_linear_8_427" x1="-301.963" y1="246.893" x2="44.0363" y2="545.079" gradientUnits="userSpaceOnUse">
<stop stop-color="#1F21A5"/>
<stop offset="1" stop-color="#004DC2"/>
</linearGradient>
<linearGradient id="paint28_linear_8_427" x1="-298.306" y1="251.293" x2="41.2081" y2="543.891" gradientUnits="userSpaceOnUse">
<stop stop-color="#2123A4"/>
<stop offset="1" stop-color="#0050C1"/>
</linearGradient>
<linearGradient id="paint29_linear_8_427" x1="-294.659" y1="255.703" x2="38.4685" y2="542.793" gradientUnits="userSpaceOnUse">
<stop stop-color="#2224A2"/>
<stop offset="1" stop-color="#0053C1"/>
</linearGradient>
<linearGradient id="paint30_linear_8_427" x1="-291.018" y1="260.117" x2="35.843" y2="541.812" gradientUnits="userSpaceOnUse">
<stop stop-color="#2325A1"/>
<stop offset="1" stop-color="#0055C0"/>
</linearGradient>
<linearGradient id="paint31_linear_8_427" x1="-287.392" y1="264.544" x2="33.3426" y2="540.963" gradientUnits="userSpaceOnUse">
<stop stop-color="#24269F"/>
<stop offset="1" stop-color="#0058C0"/>
</linearGradient>
<linearGradient id="paint32_linear_8_427" x1="-283.777" y1="268.989" x2="30.9981" y2="540.269" gradientUnits="userSpaceOnUse">
<stop stop-color="#25279E"/>
<stop offset="1" stop-color="#005BC0"/>
</linearGradient>
<linearGradient id="paint33_linear_8_427" x1="-280.177" y1="273.446" x2="28.8355" y2="539.758" gradientUnits="userSpaceOnUse">
<stop stop-color="#26299C"/>
<stop offset="1" stop-color="#005EBF"/>
</linearGradient>
<linearGradient id="paint34_linear_8_427" x1="-276.603" y1="277.919" x2="26.7822" y2="539.382" gradientUnits="userSpaceOnUse">
<stop stop-color="#272A9B"/>
<stop offset="1" stop-color="#0060BF"/>
</linearGradient>
<linearGradient id="paint35_linear_8_427" x1="-273.066" y1="282.402" x2="24.7341" y2="539.048" gradientUnits="userSpaceOnUse">
<stop stop-color="#282B99"/>
<stop offset="1" stop-color="#0063BE"/>
</linearGradient>
<linearGradient id="paint36_linear_8_427" x1="-269.575" y1="286.89" x2="22.6654" y2="538.749" gradientUnits="userSpaceOnUse">
<stop stop-color="#2A2C98"/>
<stop offset="1" stop-color="#0066BE"/>
</linearGradient>
<linearGradient id="paint37_linear_8_427" x1="-266.147" y1="291.377" x2="20.5808" y2="538.482" gradientUnits="userSpaceOnUse">
<stop stop-color="#2B2D96"/>
<stop offset="1" stop-color="#0069BD"/>
</linearGradient>
<linearGradient id="paint38_linear_8_427" x1="-262.797" y1="295.855" x2="18.4702" y2="538.252" gradientUnits="userSpaceOnUse">
<stop stop-color="#2C2F95"/>
<stop offset="1" stop-color="#006BBD"/>
</linearGradient>
<linearGradient id="paint39_linear_8_427" x1="-259.499" y1="300.338" x2="16.3334" y2="538.052" gradientUnits="userSpaceOnUse">
<stop stop-color="#2D3093"/>
<stop offset="1" stop-color="#006EBC"/>
</linearGradient>
<linearGradient id="paint40_linear_8_427" x1="-256.258" y1="304.816" x2="14.1761" y2="537.879" gradientUnits="userSpaceOnUse">
<stop stop-color="#2E3192"/>
<stop offset="1" stop-color="#0071BC"/>
</linearGradient>
</defs>
</svg>
