<svg width="470" height="29" viewBox="0 0 470 29" fill="none" xmlns="http://www.w3.org/2000/svg">
<g clip-path="url(#clip0_1_52)">
<path d="M0 0.471107H18.0596V5.3917H5.2242V11.422H16.887V16.0809H5.2242V27.639H0V0.471107Z" fill="white"/>
<path d="M36.4542 16.9813H30.9578V27.639H25.7336V0.471107H37.5954C44.6936 0.471107 47.2063 4.12491 47.2063 8.51156V8.54297C47.2063 12.2282 45.5312 15.2433 41.647 16.4473L48.4102 27.639H42.8196L36.4542 16.9813ZM30.9578 12.8982H37.3232C40.0662 12.8982 41.846 11.8932 41.846 9.0455V9.01409C41.846 6.30253 40.0662 5.36029 37.3232 5.36029H30.9578V12.8982Z" fill="white"/>
<path d="M53.938 14.0393V14.0079C53.938 6.10358 59.6961 -4.57764e-05 68.1763 -4.57764e-05C76.6565 -4.57764e-05 82.3832 6.09311 82.3832 14.0079V14.0393C82.3832 21.8809 76.5832 28.0787 68.1763 28.0787C59.7694 28.0787 53.938 21.8809 53.938 14.0393ZM77.0229 14.0393V14.0079C77.0229 8.48012 73.1073 4.93101 68.1763 4.93101C63.2452 4.93101 59.2983 8.48012 59.2983 14.0079V14.0393C59.2983 19.5357 63.2138 23.1477 68.1763 23.1477C73.1388 23.1477 77.0229 19.5253 77.0229 14.0393Z" fill="white"/>
<path d="M117.853 0.471107V27.639H112.598V4.99386L106.672 27.639H101.479L95.5117 4.96245V27.639H90.2875V0.471107H98.2965L104.097 22.2787L109.855 0.471107H117.864H117.853Z" fill="white"/>
<path d="M154.077 20.7397H143.084L140.635 27.639H135.211L145.367 0.471107H151.763L161.982 27.639H156.527L154.077 20.7397ZM144.697 16.217H152.433L148.549 5.63249L144.697 16.217Z" fill="white"/>
<path d="M167.949 25.5556L169.959 21.2004C171.969 22.5405 174.817 23.3466 177.769 23.3466C181.057 23.3466 183.224 22.174 183.224 20.1011V20.0697C183.224 18.2585 181.653 17.5257 176.796 16.0181C170.87 14.2383 168.818 12.1339 168.818 7.6426V7.57978C168.818 3.05703 172.503 0.0104523 178.67 0.0104523C182.187 0.0104523 185.705 0.879407 188.019 2.38699L186.009 6.77364C184.03 5.46498 181.35 4.70072 178.701 4.70072C175.581 4.70072 174.116 5.90469 174.116 7.48556V7.51697C174.116 9.39098 175.56 10.1971 179.204 11.3697C186.103 13.5159 188.553 15.3585 188.553 19.9755V20.0383C188.553 25.1264 184.501 28.0787 177.968 28.0787C174.084 28.0787 170.368 27.1784 167.949 25.5661V25.5556Z" fill="white"/>
<path d="M218.495 27.639H212.067L201.817 14.3116V27.639H196.593V0.471107H201.817V13.809L212.329 0.471107H218.422L207.565 13.9033L218.485 27.639H218.495Z" fill="white"/>
<path d="M243.192 5.3917H234.545V0.471107H257.054V5.3917H248.448V27.639H243.192V5.3917Z" fill="white"/>
<path d="M262.351 14.0393V14.0079C262.351 6.10358 268.109 -4.57764e-05 276.589 -4.57764e-05C285.07 -4.57764e-05 290.796 6.09311 290.796 14.0079V14.0393C290.796 21.8809 284.996 28.0787 276.589 28.0787C268.183 28.0787 262.351 21.8809 262.351 14.0393ZM285.436 14.0393V14.0079C285.436 8.48012 281.52 4.93101 276.589 4.93101C271.658 4.93101 267.711 8.48012 267.711 14.0079V14.0393C267.711 19.5357 271.627 23.1477 276.589 23.1477C281.552 23.1477 285.436 19.5253 285.436 14.0393Z" fill="white"/>
<path d="M326.539 20.7397H315.546L313.096 27.639H307.673L317.828 0.471107H324.225L334.443 27.639H328.988L326.539 20.7397ZM317.158 16.217H324.895L321.011 5.63249L317.158 16.217Z" fill="white"/>
<path d="M338.767 14.1022V14.0393C338.767 5.69527 344.525 -4.57764e-05 353.036 -4.57764e-05C356.586 -4.57764e-05 359.465 1.00501 361.946 2.57541L359.904 6.89925C357.591 5.49636 355.319 4.92054 353.036 4.92054C348.116 4.92054 344.127 8.33355 344.127 14.0289V14.0917C344.127 19.5567 348.084 23.1372 353.036 23.1372C355.319 23.1372 357.591 22.6033 359.904 21.1899L361.946 25.5137C359.538 27.0213 356.722 28.0578 353.036 28.0578C344.556 28.0578 338.767 22.4253 338.767 14.0917V14.1022Z" fill="white"/>
<path d="M377.336 5.3917H368.688V0.471107H391.197V5.3917H382.592V27.639H377.336V5.3917Z" fill="white"/>
<path d="M398.369 0.471107H403.666V27.639H398.369V0.471107Z" fill="white"/>
<path d="M411.539 14.0393V14.0079C411.539 6.10358 417.297 -4.57764e-05 425.777 -4.57764e-05C434.258 -4.57764e-05 439.984 6.09311 439.984 14.0079V14.0393C439.984 21.8809 434.184 28.0787 425.777 28.0787C417.371 28.0787 411.539 21.8809 411.539 14.0393ZM434.614 14.0393V14.0079C434.614 8.48012 430.698 4.93101 425.767 4.93101C420.836 4.93101 416.889 8.48012 416.889 14.0079V14.0393C416.889 19.5357 420.805 23.1477 425.767 23.1477C430.729 23.1477 434.614 19.5253 434.614 14.0393Z" fill="white"/>
<path d="M470 0.471107V27.639H462.86L453.113 6.36535V27.639H447.889V0.471107H455.029L464.776 21.6715V0.471107H470Z" fill="white"/>
</g>
<defs>
<clipPath id="clip0_1_52">
<rect width="470" height="28.0683" fill="white"/>
</clipPath>
</defs>
</svg>
