<svg width="712" height="298" viewBox="0 0 712 298" fill="none" xmlns="http://www.w3.org/2000/svg">
<g clip-path="url(#clip0_1_4)">
<path d="M0.481262 244.027H36.7932V257.052H14.4111V263.829H34.7908V275.824H14.4111V283.304H36.8605V296.329H0.481262V244.017V244.027Z" fill="white" stroke="white" stroke-width="0.96267" stroke-miterlimit="10"/>
<path d="M95.2272 269.701V269.827C95.2272 286.471 86.8424 296.339 67.8778 296.339H48.0083V244.027H67.8778C86.9098 244.027 95.2272 253.635 95.2272 269.701ZM81.0375 269.701C81.0375 260.989 76.7825 257.062 67.4927 257.062H61.9478V283.314H67.4927C76.7825 283.314 81.0375 279.126 81.0375 269.836V269.711V269.701Z" fill="white" stroke="white" stroke-width="0.96267" stroke-miterlimit="10"/>
<path d="M106.192 275.824V244.027H120.122V272.339C120.122 279.819 121.672 283.689 128.959 283.689C136.246 283.689 137.864 279.819 137.864 272.339V244.027H151.736V275.824C151.736 288.656 145.219 297.243 128.969 297.243C112.719 297.243 106.202 288.666 106.202 275.824H106.192Z" fill="white" stroke="white" stroke-width="0.96267" stroke-miterlimit="10"/>
<path d="M162.758 270.279V270.154C162.758 253.904 173.723 243.064 190.618 243.064C197.973 243.064 203.325 245.067 208.1 247.907L202.815 259.324C198.368 256.869 194.43 256.099 190.628 256.099C182.763 256.099 176.958 261.259 176.958 270.164V270.289C176.958 278.548 182.695 284.286 190.628 284.286C194.43 284.286 198.368 283.516 202.815 281.061L208.1 292.478C203.393 295.251 198.04 297.253 190.618 297.253C173.781 297.253 162.758 286.548 162.758 270.289V270.279Z" fill="white" stroke="white" stroke-width="0.96267" stroke-miterlimit="10"/>
<path d="M252.219 285.566H233.832L230.28 296.339H215.898L234.535 244.027H251.497L270.135 296.339H255.752L252.2 285.566H252.219ZM242.997 257.639L237.712 273.571H248.292L243.007 257.639H242.997Z" fill="white" stroke="white" stroke-width="0.96267" stroke-miterlimit="10"/>
<path d="M284.604 257.052H268.739V244.027H314.34V257.052H298.533V296.329H284.604V257.052Z" fill="white" stroke="white" stroke-width="0.96267" stroke-miterlimit="10"/>
<path d="M324.198 244.027H338.128V296.339H324.198V244.027Z" fill="white" stroke="white" stroke-width="0.96267" stroke-miterlimit="10"/>
<path d="M349.102 270.087V270.019C349.102 254.992 360.067 243.055 376.837 243.055C393.607 243.055 404.504 254.992 404.504 270.019V270.087C404.504 285.046 393.472 297.243 376.837 297.243C360.202 297.243 349.102 285.056 349.102 270.087ZM390.314 270.087V270.019C390.314 261.634 384.702 256.089 376.837 256.089C368.972 256.089 363.292 261.634 363.292 270.019V270.087C363.292 278.471 368.972 284.209 376.837 284.209C384.702 284.209 390.314 278.471 390.314 270.087Z" fill="white" stroke="white" stroke-width="0.96267" stroke-miterlimit="10"/>
<path d="M460.743 244.027V296.339H442.106L429.399 259.642V296.339H415.469V244.027H434.106L446.813 280.599V244.027H460.743Z" fill="white" stroke="white" stroke-width="0.96267" stroke-miterlimit="10"/>
<path d="M487.967 244.027H524.222V257.052H501.907V263.829H522.161V275.824H501.907V296.339H487.977V244.027H487.967Z" fill="white" stroke="white" stroke-width="0.96267" stroke-miterlimit="10"/>
<path d="M534.792 244.027H548.722V296.339H534.792V244.027Z" fill="white" stroke="white" stroke-width="0.96267" stroke-miterlimit="10"/>
<path d="M583.031 276.989H574.328V296.339H560.399V244.027H585.938C600.003 244.027 604.835 251.642 604.835 260.084V260.152C604.835 266.602 602.188 272.147 596.258 274.987L607.675 296.339H593.033L583.031 276.989ZM574.328 267.122H585.168C588.586 267.122 590.655 265.572 590.655 262.029V261.962C590.655 258.477 588.595 256.994 585.168 256.994H574.328V267.122Z" fill="white" stroke="white" stroke-width="0.96267" stroke-miterlimit="10"/>
<path d="M615.088 292.526L620.373 280.917C624.05 283.371 629.72 284.787 635.66 284.787C640.56 284.787 643.852 283.824 643.852 281.369V281.302C643.852 279.174 641.6 278.202 633.407 275.949C621.73 272.657 617.283 268.209 617.283 258.92V258.794C617.283 249.312 624.955 243.055 637.99 243.055C645.47 243.055 652.632 244.797 657.339 247.695L652.054 259.305C648.252 256.917 643.092 255.435 637.99 255.435C633.282 255.435 631.213 256.725 631.213 258.592V258.66C631.213 260.855 633.475 261.952 639.145 263.627C652.825 267.622 657.85 271.559 657.85 281.109V281.234C657.85 291.554 649.657 297.234 636.18 297.234C627.67 297.234 619.795 295.491 615.088 292.526Z" fill="white" stroke="white" stroke-width="0.96267" stroke-miterlimit="10"/>
<path d="M681.782 257.052H665.917V244.027H711.519V257.052H695.712V296.329H681.782V257.052Z" fill="white" stroke="white" stroke-width="0.96267" stroke-miterlimit="10"/>
<path d="M660.767 138.095H638.125V106.827H619.41V138.095H575.734L584.417 113.797C574.877 105.018 564.837 100.753 553.737 100.753C542.638 100.753 532.616 104.989 523.24 113.701L532.481 138.095H506.634V74.2411H487.919V138.095H465.239V106.827H446.525V138.095H276.074L276.055 137.633C275.333 120.979 264.657 110.226 248.85 110.226C235.758 110.226 225.987 117.446 222.627 129.546L222.531 129.883H222.184C206.329 130.528 197.232 140.742 197.232 157.926V197.732H215.85V160.843C215.85 156.116 216.504 149.714 222.165 148.713L222.579 148.636L222.704 149.04C226.247 160.41 235.989 167.196 248.754 167.196C258.092 167.196 265.851 163.577 270.683 157.011L270.828 156.819H679.471V74.2796H660.757V138.105L660.767 138.095ZM255.829 145.729C253.288 148.27 250.313 148.655 248.763 148.655C247.213 148.655 244.248 148.27 241.697 145.729C239.811 143.842 238.771 141.339 238.771 138.663C238.771 135.987 239.811 133.484 241.697 131.597C244.239 129.055 247.213 128.67 248.763 128.67C250.313 128.67 253.288 129.046 255.829 131.597C259.728 135.496 259.728 141.83 255.829 145.729ZM558.079 138.095H549.877L543.696 123.453L543.956 123.222C546.806 120.738 550.32 119.371 553.833 119.371C557.569 119.371 561.092 120.777 563.73 123.328L563.961 123.549L558.069 138.085L558.079 138.095Z" fill="white"/>
<path d="M711.73 74.2699H693.016V156.809H711.73V74.2699Z" fill="white"/>
<path d="M79.3817 115.241C74.087 120.536 71.1605 127.602 71.1605 135.111C71.1605 142.619 74.0774 149.685 79.3817 154.98C81.6151 157.214 84.2335 159.052 87.16 160.448L87.7761 160.737L66.2509 182.262L79.0447 195.056L119.198 154.913C130.076 144.015 130.076 126.187 119.121 115.231C108.165 104.276 90.3368 104.276 79.3817 115.231V115.241ZM106.327 142.167C103.785 144.708 100.811 145.094 99.2608 145.094C97.7109 145.094 94.7459 144.708 92.1948 142.167C90.308 140.28 89.2683 137.777 89.2683 135.101C89.2683 132.425 90.308 129.922 92.1948 128.035C94.7362 125.494 97.7109 125.108 99.2608 125.108C100.811 125.108 103.785 125.484 106.327 128.035C110.226 131.934 110.226 138.268 106.327 142.167Z" fill="white"/>
<path d="M162.268 74.2699H144.179V152.939H162.268V74.2699Z" fill="white"/>
<path d="M135.457 27.2917C135.457 42.1746 147.443 54.3234 162.268 54.5737V37.0146C157.117 36.7644 153.007 32.4997 153.007 27.2917C153.007 22.0836 157.117 17.819 162.268 17.5687V0C147.443 0.259921 135.457 12.3992 135.457 27.2917Z" fill="white"/>
<path d="M37.7847 135.9C37.7847 141.272 33.4142 145.642 28.0425 145.642C22.6708 145.642 18.5698 141.532 18.3195 136.381H0.760437C1.02036 151.206 13.1596 163.192 28.0425 163.192C42.9254 163.192 55.3342 150.947 55.3342 135.9V74.2603H37.7847V135.9Z" fill="white"/>
<path d="M18.3003 74.2699H0.750854V116.907H18.3003V74.2699Z" fill="white"/>
<path d="M455.709 193.882C461.546 193.882 466.279 189.149 466.279 183.312C466.279 177.474 461.546 172.741 455.709 172.741C449.871 172.741 445.138 177.474 445.138 183.312C445.138 189.149 449.871 193.882 455.709 193.882Z" fill="white"/>
<path d="M423.671 193.882C429.509 193.882 434.241 189.149 434.241 183.312C434.241 177.474 429.509 172.741 423.671 172.741C417.833 172.741 413.101 177.474 413.101 183.312C413.101 189.149 417.833 193.882 423.671 193.882Z" fill="white"/>
<path d="M628.777 90.8857C634.615 90.8857 639.347 86.1532 639.347 80.3155C639.347 74.4778 634.615 69.7454 628.777 69.7454C622.939 69.7454 618.207 74.4778 618.207 80.3155C618.207 86.1532 622.939 90.8857 628.777 90.8857Z" fill="white"/>
<path d="M596.749 90.8857C602.573 90.8857 607.319 86.1493 607.319 80.3155C607.319 74.4818 602.573 69.7454 596.749 69.7454C590.925 69.7454 586.179 74.4818 586.179 80.3155C586.179 86.1493 590.915 90.8857 596.749 90.8857Z" fill="white"/>
</g>
<defs>
<clipPath id="clip0_1_4">
<rect width="712" height="297.725" fill="white"/>
</clipPath>
</defs>
</svg>
